# xmcd
#
# Track frame offsets:
#	187
#	19465
#	46542
#	67942
#	88620
#	110887
#	130972
#	151742
#	176310
#	196362
#	217227
#
# Disc length: 3485 seconds
#
# Revision: 1
# Processed by: cddbd v1.5PL3 Copyright (c) Steve Scherf et al.
# Submitted via: CDex 1.50Beta5
#
DISCID=940d9b0b
DTITLE=AION - FREAKOUT
DYEAR=1995
DGENRE=Rock
TTITLE0=ALL GUNS RISE
TTITLE1=SAVE ME
TTITLE2=GET MY FREEDOM
TTITLE3=WHAT DO YOU WANT!?
TTITLE4=PURE
TTITLE5=TURN THINGS UPSIDE DOWN
TTITLE6=CLOSE THE GATE
TTITLE7=ACROSS MY LORD
TTITLE8=PETER-VIII
TTITLE9=BORN IN THE CRUSH
TTITLE10=COMING HOME
EXTD=
EXTT0=
EXTT1=
EXTT2=
EXTT3=
EXTT4=
EXTT5=
EXTT6=
EXTT7=
EXTT8=
EXTT9=
EXTT10=
PLAYORDER=
